<svg width="754" height="154" viewBox="0 0 754 154" fill="none" xmlns="http://www.w3.org/2000/svg">
<path d="M337 130H280.893V24H337V35.7283H294.174V68.8347H334.463V80.4146H294.174V118.272H337V130Z" fill="#00FFB3"/>
<path d="M261.291 24L225.628 130H212.198L176.534 24H190.411L212.645 91.9944C213.64 94.8646 214.486 97.6359 215.182 100.308C215.978 102.98 216.674 105.554 217.271 108.028C217.968 110.403 218.515 112.779 218.913 115.154C219.311 112.779 219.808 110.354 220.405 107.88C221.002 105.405 221.698 102.832 222.494 100.16C223.389 97.4874 224.285 94.6667 225.18 91.6975L247.265 24H261.291Z" fill="#FF0099"/>
<path d="M140.705 130H128.021V55.9188C128.021 53.0486 128.021 50.6237 128.021 48.6443C128.12 46.6648 128.22 44.8338 128.319 43.1513C128.419 41.3697 128.518 39.5387 128.618 37.6583C127.225 39.2418 125.882 40.6275 124.589 41.8151C123.296 42.9038 121.754 44.24 119.963 45.8235L109.368 55.028L102.504 46.2689L129.961 24H140.705V130Z" fill="#02C2FF"/>
<path d="M24 130V24H37.2807V118.123H80.8531V130H24Z" fill="#FFAA04"/>
<path d="M678.254 76.3117C678.254 78.2389 678.161 80.4415 677.975 82.9195C677.882 85.3974 677.742 87.6918 677.556 89.8026H677.975C678.72 88.8848 679.605 87.7835 680.629 86.4987C681.746 85.1221 682.864 83.7454 683.982 82.3688C685.099 80.9922 686.124 79.7991 687.055 78.7896L710.104 54.4234H727.286L696.973 86.2234L729.242 128.623H711.78L686.915 95.4467L678.254 102.605V128.623H663.586V24H678.254V76.3117Z" fill="white"/>
<path d="M625.418 130C618.526 130 612.473 128.669 607.257 126.008C602.042 123.346 597.991 119.216 595.104 113.618C592.217 107.928 590.774 100.724 590.774 92.0052C590.774 82.8277 592.31 75.3939 595.384 69.7039C598.55 64.0138 602.787 59.8381 608.096 57.1766C613.497 54.4234 619.644 53.0468 626.535 53.0468C630.726 53.0468 634.637 53.5056 638.269 54.4234C641.994 55.2493 645.068 56.213 647.489 57.3143L643.019 69.1532C640.411 68.1437 637.617 67.2719 634.637 66.5377C631.75 65.8035 629.003 65.4364 626.395 65.4364C621.739 65.4364 617.874 66.4459 614.801 68.4649C611.821 70.3922 609.586 73.329 608.096 77.2753C606.699 81.1299 606 85.9939 606 91.8675C606 97.4658 606.745 102.192 608.235 106.047C609.725 109.901 611.914 112.838 614.801 114.857C617.781 116.784 621.46 117.748 625.837 117.748C630.027 117.748 633.706 117.289 636.872 116.371C640.039 115.454 643.019 114.261 645.813 112.792V125.457C643.112 127.017 640.178 128.164 637.012 128.899C633.846 129.633 629.981 130 625.418 130Z" fill="white"/>
<path d="M544.086 53.0468C553.585 53.0468 560.663 55.1117 565.319 59.2416C569.975 63.2797 572.304 69.658 572.304 78.3766V128.623H561.827L558.893 118.299H558.334C556.192 120.96 553.957 123.163 551.629 124.906C549.394 126.65 546.786 127.935 543.806 128.761C540.919 129.587 537.38 130 533.19 130C528.719 130 524.668 129.22 521.036 127.66C517.497 126.008 514.704 123.53 512.655 120.226C510.606 116.83 509.582 112.609 509.582 107.561C509.582 100.035 512.469 94.2995 518.243 90.3532C524.11 86.4069 533.003 84.2502 544.924 83.8831L557.776 83.4701V79.3402C557.776 73.8338 556.518 69.9792 554.004 67.7766C551.489 65.574 547.951 64.4727 543.387 64.4727C539.476 64.4727 535.751 65.0234 532.212 66.1247C528.673 67.226 525.32 68.5567 522.154 70.1169L517.404 59.5169C520.943 57.6814 524.994 56.1671 529.558 54.974C534.214 53.6892 539.057 53.0468 544.086 53.0468ZM547.578 93.2441C539.01 93.6112 533.05 95.0337 529.697 97.5117C526.438 99.8978 524.808 103.293 524.808 107.699C524.808 111.553 525.972 114.352 528.3 116.096C530.722 117.84 533.748 118.712 537.38 118.712C543.248 118.712 548.09 117.106 551.909 113.893C555.727 110.681 557.636 105.863 557.636 99.4389V92.9688L547.578 93.2441Z" fill="white"/>
<path d="M488.514 118.161C490.47 118.161 492.472 117.977 494.521 117.61C496.57 117.243 498.339 116.83 499.829 116.371V127.384C498.246 128.118 496.104 128.715 493.403 129.174C490.703 129.725 488.002 130 485.301 130C481.204 130 477.432 129.312 473.986 127.935C470.634 126.558 467.933 124.172 465.884 120.776C463.835 117.381 462.811 112.654 462.811 106.597V65.5739H452.334V58.9661L463.369 53.4596L468.538 37.7661H477.618V54.4232H499.131V65.5739H477.618V106.322C477.618 110.36 478.596 113.343 480.552 115.27C482.601 117.197 485.255 118.161 488.514 118.161Z" fill="white"/>
<path d="M443.56 102.054C443.56 107.928 442.117 112.93 439.23 117.06C436.343 121.19 432.199 124.402 426.797 126.696C421.396 128.899 414.97 130 407.52 130C403.887 130 400.395 129.77 397.043 129.312C393.69 128.945 390.57 128.394 387.683 127.66C384.796 126.925 382.235 126.008 380 124.906V110.865C383.725 112.517 388.102 114.031 393.131 115.408C398.16 116.693 403.282 117.335 408.497 117.335C412.968 117.335 416.693 116.738 419.673 115.545C422.653 114.352 424.888 112.7 426.378 110.59C427.868 108.479 428.613 106.001 428.613 103.156C428.613 100.127 427.822 97.6034 426.238 95.5844C424.748 93.4735 422.374 91.5463 419.114 89.8025C415.948 87.967 411.664 86.0398 406.262 84.0207C402.537 82.6441 399.138 81.1298 396.065 79.4779C393.085 77.7341 390.43 75.7151 388.102 73.4207C385.867 71.1264 384.144 68.4649 382.934 65.4363C381.723 62.4077 381.118 58.8744 381.118 54.8363C381.118 49.4216 382.468 44.787 385.169 40.9324C387.963 37.0779 391.781 34.1411 396.623 32.122C401.466 30.0112 407.1 28.9558 413.526 28.9558C418.928 28.9558 423.91 29.5065 428.473 30.6078C433.13 31.6173 437.553 33.0398 441.744 34.8753L436.995 47.1272C433.176 45.5671 429.312 44.2822 425.4 43.2727C421.489 42.2632 417.391 41.7584 413.107 41.7584C409.382 41.7584 406.262 42.3091 403.748 43.4104C401.233 44.5116 399.324 46.0259 398.02 47.9532C396.81 49.8805 396.204 52.129 396.204 54.6987C396.204 57.7272 396.903 60.251 398.3 62.2701C399.697 64.2891 401.932 66.1705 405.005 67.9142C408.078 69.5662 412.129 71.4017 417.158 73.4207C422.746 75.5316 427.496 77.8259 431.407 80.3038C435.412 82.7818 438.438 85.7644 440.487 89.2519C442.536 92.6476 443.56 96.9151 443.56 102.054Z" fill="white"/>
</svg>
